<svg width="16" height="16" viewBox="0 0 16 16" fill="none" xmlns="http://www.w3.org/2000/svg">
<g clip-path="url(#clip0_303_36)">
<path d="M14.6663 14.6667L13.333 13.3333M7.66634 14C8.49805 14 9.32161 13.8362 10.09 13.5179C10.8584 13.1996 11.5566 12.7331 12.1447 12.145C12.7328 11.5569 13.1993 10.8587 13.5176 10.0903C13.8359 9.32193 13.9997 8.49837 13.9997 7.66666C13.9997 6.83496 13.8359 6.01139 13.5176 5.243C13.1993 4.4746 12.7328 3.77642 12.1447 3.18832C11.5566 2.60021 10.8584 2.1337 10.09 1.81542C9.32161 1.49714 8.49805 1.33333 7.66634 1.33333C5.98664 1.33333 4.37573 2.00059 3.188 3.18832C2.00027 4.37605 1.33301 5.98696 1.33301 7.66666C1.33301 9.34637 2.00027 10.9573 3.188 12.145C4.37573 13.3327 5.98664 14 7.66634 14Z" stroke="#A2A2A2" stroke-linecap="round" stroke-linejoin="round"/>
</g>
<defs>
<clipPath id="clip0_303_36">
<rect width="16" height="16" fill="white"/>
</clipPath>
</defs>
</svg>
