<svg width="65" height="65" viewBox="0 0 65 65" fill="none" xmlns="http://www.w3.org/2000/svg">
<path d="M43.8479 5.41669H21.1521C11.2938 5.41669 5.41669 11.2938 5.41669 21.1521V43.8479C5.41669 51.4584 8.91044 56.6854 15.0584 58.6625C16.8459 59.2854 18.9042 59.5834 21.1521 59.5834H43.8479C46.0959 59.5834 48.1542 59.2854 49.9417 58.6625C56.0896 56.6854 59.5834 51.4584 59.5834 43.8479V21.1521C59.5834 11.2938 53.7063 5.41669 43.8479 5.41669ZM55.5209 43.8479C55.5209 49.6438 53.2459 53.3 48.6688 54.8167C46.0417 49.6438 39.8125 45.9604 32.5 45.9604C25.1875 45.9604 18.9854 49.6167 16.3313 54.8167H16.3042C11.7813 53.3542 9.47919 49.6709 9.47919 43.875V21.1521C9.47919 13.5146 13.5146 9.47919 21.1521 9.47919H43.8479C51.4854 9.47919 55.5209 13.5146 55.5209 21.1521V43.8479Z" fill="black"/>
<path d="M32.5054 21.6667C27.1429 21.6667 22.8096 26 22.8096 31.3625C22.8096 36.725 27.1429 41.0854 32.5054 41.0854C37.8679 41.0854 42.2012 36.725 42.2012 31.3625C42.2012 26 37.8679 21.6667 32.5054 21.6667Z" fill="black"/>
</svg>
